<?xml version="1.0" standalone="no"?>
<!DOCTYPE svg PUBLIC "-//W3C//DTD SVG 20010904//EN"
 "http://www.w3.org/TR/2001/REC-SVG-20010904/DTD/svg10.dtd">
<svg version="1.0" xmlns="http://www.w3.org/2000/svg"
 width="256.000000pt" height="256.000000pt" viewBox="0 0 256.000000 256.000000"
 preserveAspectRatio="xMidYMid meet">

<g transform="translate(0.000000,256.000000) scale(0.100000,-0.100000)"
fill="#000000" stroke="none">
<path d="M881 2542 c-43 -23 -71 -74 -71 -130 0 -39 -2 -42 -19 -32 -11 5 -40
10 -65 10 -39 0 -52 -6 -84 -34 -35 -33 -37 -38 -37 -95 0 -54 3 -63 33 -94
l33 -34 -31 -31 -31 -31 -19 32 c-11 18 -21 36 -23 41 -2 7 -59 -15 -75 -29
-2 -2 20 -48 50 -103 29 -55 50 -104 46 -108 -4 -4 -45 27 -91 69 l-84 76 -29
-30 -29 -31 82 -77 81 -76 -16 -30 c-10 -19 -16 -54 -16 -95 0 -72 13 -105 75
-184 l39 -49 0 -353 0 -354 40 0 40 0 0 320 0 321 45 -27 46 -26 37 24 c97 64
81 62 147 18 33 -22 63 -40 66 -40 3 0 34 18 67 40 l62 40 62 -40 c33 -22 64
-40 68 -40 4 0 35 18 68 40 l62 40 62 -40 c33 -22 64 -40 67 -40 3 0 33 18 66
40 53 35 62 38 80 26 11 -7 30 -19 43 -27 l22 -14 0 -647 0 -648 -470 0 -470
0 0 -45 0 -45 614 0 c432 0 623 3 647 11 51 18 97 55 122 102 l22 42 2 696 3
695 125 334 c114 304 125 339 125 399 0 191 -171 320 -355 267 -45 -14 -69
-29 -109 -69 -44 -44 -57 -68 -90 -157 -21 -58 -40 -107 -42 -109 -3 -3 -22
13 -44 34 l-40 39 0 81 c0 44 -4 86 -8 93 -7 9 -68 12 -273 10 l-264 -3 -3
-52 -3 -51 -27 14 c-32 16 -95 18 -123 4 -17 -9 -19 -7 -19 17 0 120 -99 195
-189 145z m89 -91 c5 -11 10 -65 10 -120 0 -90 2 -101 20 -111 25 -13 43 -4
89 44 36 37 68 45 89 24 22 -22 12 -40 -73 -129 l-85 -90 -2 -201 c-2 -127 -7
-203 -13 -205 -6 -2 -33 43 -60 99 -55 113 -103 161 -173 174 -68 12 -106 72
-66 105 12 10 22 10 46 1 36 -13 63 -3 71 29 4 16 -11 38 -64 96 -55 60 -69
81 -67 102 5 45 42 40 99 -14 39 -37 54 -45 72 -39 34 10 37 21 37 130 0 64 4
104 12 112 18 18 46 14 58 -7z m1297 4 c48 -20 71 -41 94 -87 39 -76 31 -110
-117 -504 -128 -340 -139 -363 -169 -380 -32 -17 -32 -17 -86 20 -29 20 -61
36 -69 36 -8 0 -39 -16 -68 -36 -57 -38 -71 -38 -114 -2 l-26 23 160 425 c168
447 181 474 253 506 40 18 98 17 142 -1z m-559 -107 l-3 -43 -190 0 -190 0 -3
43 -3 42 196 0 196 0 -3 -42z m-78 -135 c0 -4 -26 -33 -57 -65 l-57 -58 -170
0 -170 0 64 65 64 65 163 0 c90 0 163 -3 163 -7z m164 -62 l38 -39 -113 -303
c-63 -166 -120 -304 -127 -307 -9 -3 -12 54 -12 259 l0 264 82 82 c46 46 85
83 88 83 3 0 23 -18 44 -39z m-304 -378 l0 -227 -26 52 c-31 62 -90 115 -152
136 -51 18 -138 21 -176 6 l-26 -10 0 135 0 135 190 0 190 0 0 -227z m-685 36
c32 -33 135 -242 135 -273 0 -14 -3 -14 -20 -4 -21 13 -28 11 -126 -47 l-31
-18 -47 32 -47 33 55 41 c30 23 55 44 55 47 0 3 -13 20 -29 39 l-29 34 -52
-42 c-28 -22 -55 -41 -59 -41 -4 0 -15 18 -25 40 -45 99 30 206 138 197 39 -3
55 -11 82 -38z m495 -171 c38 -19 90 -76 90 -97 0 -8 -97 -71 -110 -71 -6 0
-35 17 -66 37 -54 36 -55 36 -87 20 -18 -9 -47 -26 -64 -37 l-33 -22 0 26 c0
32 30 94 57 118 55 50 144 61 213 26z m680 -238 c32 -22 63 -40 67 -40 5 0 25
11 46 26 l37 25 -2 -626 -3 -627 -37 -34 -38 -34 -105 0 -105 0 0 649 0 648
38 26 c20 14 38 26 40 26 2 1 30 -17 62 -39z"/>
<path d="M2078 2178 c-16 -5 -28 -16 -28 -24 0 -13 68 -231 76 -246 7 -11 79
18 82 33 5 26 -74 244 -89 246 -8 1 -26 -3 -41 -9z"/>
<path d="M1950 1879 c-13 -6 -26 -12 -28 -14 -2 -2 15 -62 39 -133 l43 -130
43 15 c25 9 42 20 40 27 -2 6 -21 64 -41 129 -39 124 -42 127 -96 106z"/>
<path d="M340 811 c0 -34 4 -40 29 -49 31 -11 61 -56 61 -92 0 -19 -1 -20 -36
-5 -45 19 -124 19 -167 2 -94 -40 -137 -112 -137 -232 0 -103 21 -190 71 -293
31 -63 49 -88 80 -109 53 -35 122 -41 180 -16 42 18 46 18 89 2 113 -44 209
-2 270 120 69 138 94 336 53 416 -55 106 -182 155 -287 111 l-34 -14 -4 50
c-3 27 -14 62 -25 76 -29 39 -81 72 -114 72 -27 0 -29 -3 -29 -39z"/>
</g>
</svg>
